<?xml version="1.0" encoding="UTF-8"?>
<svg width="100pt" height="100pt" version="1.1" viewBox="0 0 100 100" xmlns="http://www.w3.org/2000/svg">
 <g fill-rule="evenodd">
  <path d="m67.324 80.43 0.17578 0.03125c-4.8555 11.812-16.414 19.539-29.262 19.539-17.441 0-31.602-14.066-31.602-31.414 0-11.68 6.5156-22.395 16.914-27.82l0.91016 9.0352c-6.0195 4.3984-9.5664 11.371-9.5664 18.785 0 12.879 10.539 23.34 23.523 23.34 12.98 0 23.52-10.461 23.52-23.34 0-0.29297-0.003906-0.60547-0.015625-0.88672z"/>
  <path d="m25.312 9.332-0.17578 0.18359v-0.18359c0-5.1523 4.2617-9.332 9.5117-9.332 5.2539 0 9.5156 4.1797 9.5156 9.332 0 5.1562-4.2617 9.3398-9.5156 9.3398-0.12109 0-0.24219-0.011719-0.36328-0.011719l0.1875 0.011719 1.082 18.312h24.766v7.7148h-24.414l0.35938 6.6445h31.953l13.289 28.727 8.9805-3.9453 2.8711 6.293-16.879 7.3555-13.641-30.344h-34.293l-3.4102-49.914z"/>
 </g>
</svg>
